SplineFontDB: 3.2
FontName: Essiah
FullName: Essiah
FamilyName: Essiah
Weight: Regular
Copyright: Copyright (c) 2023, Michael Chapman
UComments: "2023-12-2: Created with FontForge (http://fontforge.org)"
Version: 001.000
ItalicAngle: 0
UnderlinePosition: -101.376
UnderlineWidth: 50.176
Ascent: 819
Descent: 205
InvalidEm: 0
LayerCount: 2
Layer: 0 0 "Back" 1
Layer: 1 0 "Fore" 0
XUID: [1021 111 1703824445 12715359]
FSType: 0
OS2Version: 0
OS2_WeightWidthSlopeOnly: 0
OS2_UseTypoMetrics: 1
CreationTime: 1701562182
ModificationTime: 1701634378
PfmFamily: 17
TTFWeight: 400
TTFWidth: 5
LineGap: 92
VLineGap: 0
OS2TypoAscent: 800
OS2TypoAOffset: 0
OS2TypoDescent: -200
OS2TypoDOffset: 0
OS2TypoLinegap: 92
OS2WinAscent: 800
OS2WinAOffset: 0
OS2WinDescent: 200
OS2WinDOffset: 0
HheadAscent: 800
HheadAOffset: 0
HheadDescent: 200
HheadDOffset: 0
OS2Vendor: 'PfEd'
MarkAttachClasses: 1
DEI: 91125
Encoding: ISO8859-1
UnicodeInterp: none
NameList: AGL For New Fonts
DisplaySize: -48
AntiAlias: 1
FitToEm: 0
WinInfo: 32 16 6
BeginPrivate: 0
EndPrivate
Grid
512 1331.20019531 m 4
 512 -716.799804688 l 1028
408.576171875 1329.15234375 m 4
 408.576171875 -718.84765625 l 1028
-1024 357.375976562 m 4
 2048 357.375976562 l 1028
-1024 459.776367188 m 4
 2048 459.776367188 l 1028
EndSplineSet
BeginChars: 256 256

StartChar: A
Encoding: 65 65 0
Width: 919
Flags: HW
HStem: 0 22G<32 135 785 888> 0 22G<32 135 785 888> 357 102<139 782> 736 102<343 576>
VStem: 32 103<0 357 460 528> 785 102<0 357 460 523>
LayerCount: 2
Fore
SplineSet
32 411 m 2xbc
 32 648 223 839 460 839 c 3
 697 839 888 648 888 411 c 0
 888 174 888 160 888 0 c 1
 785 0 l 1
 785 357 l 1
 135 357 l 1
 135 0 l 1
 32 0 l 1
 32 411 l 2xbc
782 460 m 1
 758 617 624 736 460 736 c 3
 296 736 162 617 139 460 c 1
 782 460 l 1
EndSplineSet
EndChar

StartChar: c
Encoding: 99 99 1
Width: 919
Flags: HW
HStem: 0 103<343 886> 716 103<343 886>
VStem: 32 103<294 527>
LayerCount: 2
Fore
SplineSet
460 0 m 3
 223 0 32 174 32 411 c 3
 32 648 223 819 460 819 c 3
 697 819 886 819 886 819 c 1
 886 716 l 1
 886 716 640 716 460 716 c 3
 280 716 135 591 135 411 c 3
 135 231 280 103 460 103 c 3
 640 103 886 103 886 103 c 9
 886 0 l 17
 886 0 697 0 460 0 c 3
EndSplineSet
EndChar

StartChar: e
Encoding: 101 101 2
Width: 919
Flags: HW
HStem: 0 103<343 409 512 886> 716 103<343 409 512 886>
VStem: 32 103<296 525> 409 103<107 712>
LayerCount: 2
Fore
SplineSet
460 0 m 0
 223 0 32 174 32 411 c 0
 32 648 223 819 460 819 c 0
 697 819 886 819 886 819 c 1
 886 716 l 1
 512 716 l 1
 512 103 l 1
 886 103 l 1
 886 0 l 1
 886 0 697 0 460 0 c 0
409 712 m 1
 253 691 135 574 135 411 c 0
 135 248 253 129 409 107 c 1
 409 712 l 1
EndSplineSet
EndChar

StartChar: o
Encoding: 111 111 3
Width: 919
Flags: HW
HStem: -17 103<341 578> 736 102<345 574>
VStem: 32 103<292 529> 785 102<296 525>
LayerCount: 2
Fore
SplineSet
135 411 m 0
 135 231 280 86 460 86 c 0
 640 86 785 231 785 411 c 0
 785 591 640 736 460 736 c 0
 280 736 135 591 135 411 c 0
32 411 m 0
 32 648 223 839 460 839 c 0
 697 839 888 648 888 411 c 0
 888 174 697 -17 460 -17 c 0
 223 -17 32 174 32 411 c 0
EndSplineSet
EndChar

StartChar: exclam
Encoding: 33 33 37
Width: 919
Flags: HW
HStem: 0 103<409 512> 799 20G<409 512> 799 20G<409 512>
VStem: 409 103<0 103 198 819>
LayerCount: 2
Fore
SplineSet
409 103 m 5x90
 512 103 l 5
 512 0 l 5
 409 0 l 5
 409 103 l 5x90
409 198 m 5
 409 819 l 5
 512 819 l 5xd0
 512 198 l 5
 409 198 l 5
EndSplineSet
EndChar

StartChar: numbersign
Encoding: 35 35 39
Width: 919
Flags: HW
HStem: 0 22G<399 521> 0 22G<399 521> 357 102<352 568>
LayerCount: 2
Fore
SplineSet
461 114 m 1x20
 568 357 l 1
 352 357 l 1
 461 114 l 1x20
512 0 m 1xa0
 409 0 l 1
 199 460 l 1
 722 460 l 1
 512 0 l 1xa0
EndSplineSet
EndChar

StartChar: percent
Encoding: 37 37 41
Width: 919
Flags: HW
HStem: 0 22G<-24 141 817 920> 0 22G<-24 141 817 920> 799 20G<0 103 774 940> 799 20G<0 103 774 940>
VStem: 0 103<460 819> 817 102<0 357>
LayerCount: 2
Fore
SplineSet
817 357 m 1x8c
 920 357 l 1
 920 0 l 1
 817 0 l 1
 817 357 l 1x8c
0 819 m 1x2c
 103 819 l 1
 103 460 l 1
 0 460 l 1
 0 819 l 1x2c
121 0 m 1xac
 -24 0 l 1
 795 819 l 1
 940 819 l 1
 121 0 l 1xac
EndSplineSet
EndChar

StartChar: parenleft
Encoding: 40 40 44
Width: 919
Flags: HW
HStem: 0 103<706 795> 716 103<700 795>
VStem: 512 101<209 617>
LayerCount: 2
Fore
SplineSet
795 0 m 17
 558 0 512 174 512 411 c 3
 512 648 558 819 795 819 c 9
 795 716 l 1
 615 716 613 565 613 411 c 3
 613 264 615 103 795 103 c 1
 795 0 l 17
EndSplineSet
EndChar

StartChar: parenright
Encoding: 41 41 45
Width: 919
Flags: HW
HStem: 0 103<126 223> 716 103<126 223>
VStem: 306 102<194 627>
LayerCount: 2
Fore
SplineSet
126 0 m 0
 126 103 l 0
 306 103 306 231 306 411 c 0
 306 591 306 716 126 716 c 0
 126 819 l 0
 363 819 409 648 409 411 c 0
 409 174 363 0 126 0 c 0
EndSplineSet
EndChar

StartChar: asterisk
Encoding: 42 42 46
Width: 919
Flags: HW
LayerCount: 2
Fore
SplineSet
258 539 m 1
 330 612 l 1
 461 481 l 1
 591 611 l 1
 664 538 l 1
 534 408 l 1
 663 279 l 1
 590 206 l 1
 461 335 l 1
 332 206 l 1
 259 279 l 1
 388 408 l 1
 258 539 l 1
EndSplineSet
EndChar

StartChar: plus
Encoding: 43 43 47
Width: 919
Flags: HW
HStem: 357 102<226 409 512 696>
VStem: 409 103<175 357 460 645>
LayerCount: 2
Fore
SplineSet
409 645 m 5
 512 645 l 5
 512 460 l 5
 696 460 l 5
 696 357 l 5
 512 357 l 5
 512 175 l 5
 409 175 l 5
 409 357 l 5
 226 357 l 5
 226 460 l 5
 409 460 l 5
 409 645 l 5
EndSplineSet
EndChar

StartChar: comma
Encoding: 44 44 48
Width: 919
Flags: HW
HStem: 357 102<409 512>
VStem: 409 103<357 460>
LayerCount: 2
Fore
SplineSet
409 460 m 1
 512 460 l 1
 512 357 l 1
 409 357 l 1
 409 460 l 1
EndSplineSet
EndChar

StartChar: hyphen
Encoding: 45 45 49
Width: 919
Flags: HW
HStem: 357 102<226 696>
LayerCount: 2
Fore
SplineSet
226 357 m 1
 226 460 l 1
 696 460 l 1
 696 357 l 1
 226 357 l 1
EndSplineSet
EndChar

StartChar: period
Encoding: 46 46 50
Width: 919
Flags: HW
VStem: 409 103<182 637>
LayerCount: 2
Fore
SplineSet
409 637 m 5
 512 637 l 5
 512 182 l 5
 409 182 l 5
 409 637 l 5
EndSplineSet
EndChar

StartChar: slash
Encoding: 47 47 51
Width: 919
Flags: HW
HStem: 0 22G<-24 141> 0 22G<-24 141> 799 20G<774 940> 799 20G<774 940>
LayerCount: 2
Fore
SplineSet
121 0 m 5xa0
 -24 0 l 5
 795 819 l 5
 940 819 l 5
 121 0 l 5xa0
EndSplineSet
EndChar

StartChar: colon
Encoding: 58 58 62
Width: 919
Flags: HW
HStem: 254 103<409 512> 460 103<409 512>
VStem: 409 103<254 357 460 563>
LayerCount: 2
Fore
SplineSet
409 357 m 1
 512 357 l 1
 512 254 l 1
 409 254 l 1
 409 357 l 1
409 563 m 5
 512 563 l 5
 512 460 l 5
 409 460 l 5
 409 563 l 5
EndSplineSet
EndChar

StartChar: semicolon
Encoding: 59 59 63
Width: 919
Flags: HW
HStem: 0 22G<399 521> 0 22G<399 521> 357 102<352 568>
LayerCount: 2
Fore
SplineSet
461 114 m 1x20
 568 357 l 1
 352 357 l 1
 461 114 l 1x20
512 0 m 1xa0
 409 0 l 1
 199 460 l 1
 722 460 l 1
 512 0 l 1xa0
EndSplineSet
EndChar

StartChar: less
Encoding: 60 60 64
Width: 919
Flags: HW
VStem: 409 103<299 518>
LayerCount: 2
Fore
SplineSet
153 409 m 1
 409 299 l 1
 409 518 l 1
 153 409 l 1
33 357 m 1
 33 460 l 1
 512 670 l 1
 512 147 l 1
 33 357 l 1
EndSplineSet
EndChar

StartChar: equal
Encoding: 61 61 65
Width: 919
Flags: HW
HStem: 254 103<225 695> 460 103<226 696>
LayerCount: 2
Fore
SplineSet
225 254 m 5
 225 357 l 5
 695 357 l 5
 695 254 l 5
 225 254 l 5
226 460 m 5
 226 563 l 5
 696 563 l 5
 696 460 l 5
 226 460 l 5
EndSplineSet
EndChar

StartChar: greater
Encoding: 62 62 66
Width: 919
Flags: HW
VStem: 409 103<299 518>
LayerCount: 2
Fore
SplineSet
768 409 m 1
 512 518 l 1
 512 299 l 1
 768 409 l 1
888 357 m 1
 409 147 l 1
 409 670 l 1
 888 460 l 1
 888 357 l 1
EndSplineSet
EndChar

StartChar: question
Encoding: 63 63 67
Width: 919
Flags: HW
HStem: 0 22G<409 512> 0 22G<409 512> 716 103<409 512>
VStem: 409 103<0 621 716 819>
LayerCount: 2
Fore
SplineSet
409 716 m 1x30
 409 819 l 1
 512 819 l 1
 512 716 l 1
 409 716 l 1x30
409 621 m 1
 512 621 l 1
 512 0 l 1
 409 0 l 1xb0
 409 621 l 1
EndSplineSet
EndChar

StartChar: B
Encoding: 66 66 69
Width: 919
Flags: HW
HStem: 809 20G<841 888> 809 20G<841 888>
LayerCount: 2
Fore
SplineSet
161 409 m 1x80
 888 96 l 1
 888 -12 l 1
 42 357 l 1
 42 460 l 1
 888 829 l 1
 888 721 l 1
 161 409 l 1x80
EndSplineSet
EndChar

StartChar: C
Encoding: 67 67 70
Width: 919
Flags: HW
HStem: 809 20G<841 888> 809 20G<841 888>
VStem: 409 103<302 515>
LayerCount: 2
Fore
SplineSet
161 409 m 1x20
 409 302 l 1
 409 515 l 1
 161 409 l 1x20
42 357 m 1
 42 460 l 1
 888 829 l 1xa0
 888 721 l 1
 512 559 l 1
 512 258 l 1
 888 96 l 1
 888 -12 l 1
 42 357 l 1
EndSplineSet
EndChar

StartChar: D
Encoding: 68 68 71
Width: 919
Flags: HW
HStem: 0 103<42 409 512 888> 799 20G<409 512> 799 20G<409 512>
VStem: 409 103<103 819>
LayerCount: 2
Fore
SplineSet
42 0 m 1xd0
 42 103 l 1
 409 103 l 1
 409 819 l 1
 512 819 l 1
 512 103 l 1
 888 103 l 1
 888 0 l 1
 42 0 l 1xd0
EndSplineSet
EndChar

StartChar: E
Encoding: 69 69 72
Width: 919
Flags: HW
HStem: 0 103<343 888> 357 102<140 888> 716 103<343 888>
VStem: 32 108<285 357 460 534>
LayerCount: 2
Fore
SplineSet
460 0 m 3
 223 0 32 174 32 411 c 3
 32 648 223 819 460 819 c 3
 697 819 888 819 888 819 c 1
 888 716 l 1
 888 716 640 716 460 716 c 3
 297 716 163 613 139 460 c 1
 888 460 l 1
 888 357 l 1
 140 357 l 1
 165 206 298 103 460 103 c 3
 640 103 888 103 888 103 c 1
 888 0 l 1
 888 0 697 0 460 0 c 3
EndSplineSet
EndChar

StartChar: F
Encoding: 70 70 73
Width: 919
Flags: HW
HStem: 0 22G<42 145> 0 22G<42 145> 357 102<145 888> 799 20G<42 145> 799 20G<42 145>
VStem: 42 103<0 357 460 819>
LayerCount: 2
Fore
SplineSet
42 819 m 1xb4
 145 819 l 1
 145 460 l 1
 888 460 l 1
 888 357 l 1
 145 357 l 1
 145 0 l 1
 42 0 l 1
 42 819 l 1xb4
EndSplineSet
EndChar

StartChar: G
Encoding: 71 71 74
Width: 919
Flags: HW
HStem: 0 22G<787 888> 0 22G<787 888> 716 103<42 787>
VStem: 787 100<0 716>
LayerCount: 2
Fore
SplineSet
888 819 m 1xb0
 888 0 l 1
 787 0 l 1
 787 716 l 1
 42 716 l 1
 42 819 l 1
 888 819 l 1xb0
EndSplineSet
EndChar

StartChar: H
Encoding: 72 72 75
Width: 919
Flags: HW
HStem: 0 22G<0 114 807 920> 0 22G<0 114 807 920> 357 102<333 588> 799 20G<398 522> 799 20G<398 522>
LayerCount: 2
Fore
SplineSet
460 716 m 1x20
 333 460 l 1
 588 460 l 1
 460 716 l 1x20
512 819 m 1xb0
 920 0 l 1
 817 0 l 1
 639 357 l 1
 282 357 l 1
 103 0 l 1
 0 0 l 1
 409 819 l 1
 512 819 l 1xb0
EndSplineSet
EndChar

StartChar: I
Encoding: 73 73 76
Width: 919
Flags: HW
HStem: 0 103<42 575> 357 102<42 779> 716 103<42 580>
VStem: 779 106<285 357 460 534>
LayerCount: 2
Fore
SplineSet
458 0 m 3
 221 0 42 0 42 0 c 1
 42 103 l 1
 42 103 278 103 458 103 c 3
 620 103 753 205 779 357 c 1
 42 357 l 1
 42 460 l 1
 779 460 l 1
 755 614 622 716 458 716 c 3
 278 716 42 716 42 716 c 1
 42 819 l 1
 42 819 221 819 458 819 c 3
 695 819 886 648 886 411 c 3
 886 174 695 0 458 0 c 3
EndSplineSet
EndChar

StartChar: J
Encoding: 74 74 77
Width: 919
Flags: HW
HStem: 0 103<42 787> 799 20G<787 888> 799 20G<787 888>
VStem: 787 100<103 819>
LayerCount: 2
Fore
SplineSet
888 0 m 1xd0
 42 0 l 1
 42 103 l 1
 787 103 l 1
 787 819 l 1
 888 819 l 1
 888 0 l 1xd0
EndSplineSet
EndChar

StartChar: K
Encoding: 75 75 78
Width: 919
Flags: HW
HStem: 0 103<343 886> 716 103<343 886>
VStem: 32 103<294 527>
LayerCount: 2
Fore
SplineSet
460 0 m 3
 223 0 32 174 32 411 c 3
 32 648 223 819 460 819 c 3
 697 819 886 819 886 819 c 1
 886 716 l 1
 886 716 640 716 460 716 c 3
 280 716 135 591 135 411 c 3
 135 231 280 103 460 103 c 3
 640 103 886 103 886 103 c 9
 886 0 l 17
 886 0 697 0 460 0 c 3
EndSplineSet
EndChar

StartChar: L
Encoding: 76 76 79
Width: 919
Flags: HW
HStem: 0 22G<0 114 807 920> 0 22G<0 114 807 920> 799 20G<398 522> 799 20G<398 522>
LayerCount: 2
Fore
SplineSet
460 716 m 5xa0
 103 0 l 5
 0 0 l 5
 409 819 l 5
 512 819 l 5
 920 0 l 5
 817 0 l 5
 460 716 l 5xa0
EndSplineSet
EndChar

StartChar: M
Encoding: 77 77 80
Width: 919
Flags: HW
HStem: -17 103<341 578> 799 20G<32 135 785 888> 799 20G<32 135 785 888>
VStem: 32 103<293 819> 785 102<299 819>
LayerCount: 2
Fore
SplineSet
888 411 m 0xd8
 888 174 697 -17 460 -17 c 0
 223 -17 32 174 32 411 c 0
 32 648 32 819 32 819 c 1
 135 819 l 1
 135 819 135 591 135 411 c 0
 135 231 280 86 460 86 c 0
 640 86 785 231 785 411 c 0
 785 591 785 819 785 819 c 1
 888 819 l 1
 888 819 888 648 888 411 c 0xd8
EndSplineSet
EndChar

StartChar: N
Encoding: 78 78 81
Width: 919
Flags: HW
HStem: 0 22G<-24 141 774 940> 0 22G<-24 141 774 940> 799 20G<-24 141> 799 20G<-24 141>
LayerCount: 2
Fore
SplineSet
795 0 m 5xa0
 458 337 l 5
 121 0 l 5
 -24 0 l 5
 385 410 l 5
 -24 819 l 5
 121 819 l 5
 940 0 l 5
 795 0 l 5xa0
EndSplineSet
EndChar

StartChar: O
Encoding: 79 79 82
Width: 919
Flags: HW
HStem: -17 107<332 409 512 587> 732 106<332 409 512 587>
VStem: 32 103<294 527> 409 103<90 732> 785 102<294 527>
LayerCount: 2
Fore
SplineSet
32 411 m 0
 32 648 223 839 460 839 c 0
 697 839 888 648 888 411 c 0
 888 174 697 -17 460 -17 c 0
 223 -17 32 174 32 411 c 0
409 90 m 1
 409 732 l 1
 253 708 135 574 135 411 c 0
 135 248 253 114 409 90 c 1
512 90 m 1
 667 115 785 249 785 411 c 0
 785 573 667 707 512 732 c 1
 512 90 l 1
EndSplineSet
EndChar

StartChar: P
Encoding: 80 80 83
Width: 919
Flags: HW
HStem: 0 22G<781 888> 0 22G<781 888> 357 102<42 781> 799 20G<781 888> 799 20G<781 888>
VStem: 781 106<0 357 460 819>
LayerCount: 2
Fore
SplineSet
888 819 m 1xb4
 888 0 l 1
 781 0 l 1
 781 357 l 1
 42 357 l 1
 42 460 l 1
 781 460 l 1
 781 819 l 1
 888 819 l 1xb4
EndSplineSet
EndChar

StartChar: Q
Encoding: 81 81 84
Width: 919
Flags: HW
HStem: 0 103<343 886> 716 103<343 886>
VStem: 32 103<294 527>
LayerCount: 2
Fore
SplineSet
460 0 m 0
 223 0 32 174 32 411 c 0
 32 648 223 819 460 819 c 0
 697 819 886 819 886 819 c 1
 886 716 l 1
 886 716 640 716 460 716 c 0
 280 716 135 591 135 411 c 0
 135 231 280 103 460 103 c 0
 640 103 886 103 886 103 c 1
 886 0 l 1
 886 0 697 0 460 0 c 0
EndSplineSet
EndChar

StartChar: R
Encoding: 82 82 85
Width: 919
Flags: HW
HStem: 0 22G<42 143> 0 22G<42 143> 716 103<143 873>
VStem: 42 101<0 716>
LayerCount: 2
Fore
SplineSet
42 819 m 1xb0
 873 819 l 1
 873 716 l 1
 143 716 l 1
 143 0 l 1
 42 0 l 1
 42 819 l 1xb0
EndSplineSet
EndChar

StartChar: S
Encoding: 83 83 86
Width: 919
Flags: HW
HStem: 809 20G<42 89> 809 20G<42 89>
VStem: 409 103<298 519>
LayerCount: 2
Fore
SplineSet
769 409 m 1x20
 512 519 l 1
 512 298 l 1
 769 409 l 1x20
888 357 m 1
 42 -12 l 1
 42 96 l 1
 409 254 l 1
 409 563 l 1
 42 721 l 1
 42 829 l 1xa0
 888 460 l 1
 888 357 l 1
EndSplineSet
EndChar

StartChar: T
Encoding: 84 84 87
Width: 919
Flags: HW
HStem: 0 22G<398 522> 0 22G<398 522> 357 102<333 588> 799 20G<1 115 807 920> 799 20G<1 115 807 920>
LayerCount: 2
Fore
SplineSet
512 0 m 1xb0
 409 0 l 1
 1 819 l 1
 104 819 l 1
 283 460 l 1
 638 460 l 1
 817 819 l 1
 920 819 l 1
 512 0 l 1xb0
461 101 m 1
 588 357 l 1
 333 357 l 1
 461 101 l 1
EndSplineSet
EndChar

StartChar: U
Encoding: 85 85 88
Width: 919
Flags: HW
HStem: -17 103<345 575> 356 103<140 781> 799 20G<32 135 785 888> 799 20G<32 135 785 888>
VStem: 32 103<294 356 460 819> 785 102<294 356 460 819>
LayerCount: 2
Fore
SplineSet
888 411 m 0xec
 888 174 697 -17 460 -17 c 0
 223 -17 32 174 32 411 c 0
 32 648 32 819 32 819 c 1
 135 819 l 1
 135 460 l 1
 785 460 l 1
 785 819 l 1
 888 819 l 1
 888 819 888 648 888 411 c 0xec
140 356 m 1
 166 202 298 86 460 86 c 0
 622 86 755 202 781 356 c 1
 140 356 l 1
EndSplineSet
EndChar

StartChar: V
Encoding: 86 86 89
Width: 919
Flags: HW
HStem: 0 22G<398 522> 0 22G<398 522> 799 20G<1 115 807 920> 799 20G<1 115 807 920>
LayerCount: 2
Fore
SplineSet
460 104 m 1xa0
 817 819 l 1
 920 819 l 1
 512 0 l 1
 409 0 l 1
 1 819 l 1
 104 819 l 1
 460 104 l 1xa0
EndSplineSet
EndChar

StartChar: W
Encoding: 87 87 90
Width: 919
Flags: HW
HStem: -18 104<343 577> 736 104<343 577>
VStem: 31 104<294 528> 786 103<294 528>
LayerCount: 2
Fore
SplineSet
157 108 m 0
 73 192 31 301 31 411 c 0
 31 521 73 630 157 714 c 0
 241 798 350 840 460 840 c 0
 570 840 679 798 763 714 c 0
 847 630 889 521 889 411 c 0
 889 301 847 192 763 108 c 0
 679 24 570 -18 460 -18 c 0
 350 -18 241 24 157 108 c 0
651 147 m 1
 460 339 l 1
 269 147 l 1
 326 106 393 86 460 86 c 0
 527 86 594 106 651 147 c 1
197 602 m 1
 156 545 135 479 135 412 c 0
 135 345 156 278 197 221 c 1
 387 412 l 1
 197 602 l 1
724 220 m 1
 765 276 786 343 786 410 c 0
 786 477 765 545 723 602 c 1
 532 412 l 1
 724 220 l 1
269 674 m 1
 460 483 l 1
 651 675 l 1
 594 716 528 736 461 736 c 0
 394 736 326 716 269 674 c 1
EndSplineSet
EndChar

StartChar: X
Encoding: 88 88 91
Width: 919
Flags: HW
HStem: 0 22G<774 940> 0 22G<774 940> 799 20G<-24 141 774 940> 799 20G<-24 141 774 940>
LayerCount: 2
Fore
SplineSet
795 0 m 1xa0
 -24 819 l 1
 121 819 l 1
 458 482 l 1
 795 819 l 1
 940 819 l 1
 530 410 l 1
 940 0 l 1
 795 0 l 1xa0
EndSplineSet
EndChar

StartChar: Y
Encoding: 89 89 92
Width: 919
Flags: HW
HStem: -17 103<345 575> 357 102<139 781> 736 102<343 576>
VStem: 32 108<283 357 460 537> 781 107<283 357 460 537>
LayerCount: 2
Fore
SplineSet
32 411 m 0
 32 648 223 839 460 839 c 0
 697 839 888 648 888 411 c 0
 888 174 697 -17 460 -17 c 0
 223 -17 32 174 32 411 c 0
139 357 m 1
 164 202 298 86 460 86 c 0
 622 86 756 202 781 357 c 1
 139 357 l 1
782 460 m 1
 758 617 624 736 460 736 c 0
 296 736 162 617 139 460 c 1
 782 460 l 1
EndSplineSet
EndChar

StartChar: Z
Encoding: 90 90 93
Width: 919
Flags: HW
HStem: 0 22G<-24 141> 0 22G<-24 141> 799 20G<-24 141 774 940> 799 20G<-24 141 774 940>
LayerCount: 2
Fore
SplineSet
121 0 m 1xa0
 -24 0 l 1
 385 409 l 1
 -24 819 l 1
 121 819 l 1
 458 482 l 1
 795 819 l 1
 940 819 l 1
 121 0 l 1xa0
EndSplineSet
EndChar

StartChar: bracketleft
Encoding: 91 91 94
Width: 919
Flags: HW
HStem: 0 103<616 795> 716 103<614 795>
VStem: 512 283<0 103 716 819> 512 104<103 716>
LayerCount: 2
Fore
SplineSet
795 0 m 1xe0
 512 0 l 1
 512 819 l 1
 795 819 l 1
 795 716 l 1xe0
 614 716 l 1
 616 103 l 1xd0
 795 103 l 1
 795 0 l 1xe0
EndSplineSet
EndChar

StartChar: backslash
Encoding: 92 92 95
Width: 919
Flags: HW
HStem: 0 22G<774 940> 0 22G<774 940> 799 20G<-24 141> 799 20G<-24 141>
LayerCount: 2
Fore
SplineSet
795 0 m 1xa0
 -24 819 l 1
 121 819 l 1
 940 0 l 1
 795 0 l 1xa0
EndSplineSet
EndChar

StartChar: bracketright
Encoding: 93 93 96
Width: 919
Flags: HW
HStem: 0 103<126 305> 716 103<126 307>
VStem: 126 283<0 103 716 819> 305 103<103 716>
LayerCount: 2
Fore
SplineSet
126 0 m 1xe0
 126 103 l 1xe0
 305 103 l 1xd0
 307 716 l 1
 126 716 l 1
 126 819 l 1
 409 819 l 1
 409 0 l 1
 126 0 l 1xe0
EndSplineSet
EndChar

StartChar: asciicircum
Encoding: 94 94 97
Width: 919
Flags: HW
HStem: 357 102<353 569> 799 20G<399 521> 799 20G<399 521>
LayerCount: 2
Fore
SplineSet
460 703 m 1x80
 353 460 l 1
 569 460 l 1
 460 703 l 1x80
512 819 m 1xc0
 722 357 l 1
 199 357 l 1
 409 819 l 1
 512 819 l 1xc0
EndSplineSet
EndChar

StartChar: underscore
Encoding: 95 95 98
Width: 919
Flags: HW
HStem: 0 103<42 888>
LayerCount: 2
Fore
SplineSet
42 0 m 1
 42 103 l 1
 888 103 l 1
 888 0 l 1
 42 0 l 1
EndSplineSet
EndChar

StartChar: a
Encoding: 97 97 100
Width: 919
Flags: HW
HStem: 0 22G<32 135 409 512 785 888> 0 22G<32 135 409 512 785 888> 732 106<332 409 512 587>
VStem: 32 103<0 526> 409 103<0 732> 785 102<0 526>
LayerCount: 2
Fore
SplineSet
32 411 m 0xbc
 32 648 223 839 460 839 c 0
 697 839 888 648 888 411 c 0
 888 174 888 0 888 0 c 1
 785 0 l 1
 785 0 785 231 785 411 c 0
 785 573 667 707 512 732 c 1
 512 0 l 1
 409 0 l 1
 409 732 l 1
 253 708 135 574 135 411 c 0
 135 231 135 0 135 0 c 1
 32 0 l 1
 32 0 32 174 32 411 c 0xbc
EndSplineSet
EndChar

StartChar: b
Encoding: 98 98 101
Width: 919
Flags: HW
HStem: 809 20G<841 888> 809 20G<841 888>
LayerCount: 2
Fore
SplineSet
161 409 m 1x80
 888 96 l 1
 888 -12 l 1
 42 357 l 1
 42 460 l 1
 888 829 l 1
 888 721 l 1
 161 409 l 1x80
EndSplineSet
EndChar

StartChar: d
Encoding: 100 100 102
Width: 919
Flags: HW
HStem: 0 103<42 409 512 888> 799 20G<409 512> 799 20G<409 512>
VStem: 409 103<103 819>
LayerCount: 2
Fore
SplineSet
42 0 m 1xd0
 42 103 l 1
 409 103 l 1
 409 819 l 1
 512 819 l 1
 512 103 l 1
 888 103 l 1
 888 0 l 1
 42 0 l 1xd0
EndSplineSet
EndChar

StartChar: f
Encoding: 102 102 103
Width: 919
Flags: HW
HStem: 0 22G<42 145> 0 22G<42 145> 357 102<145 888> 799 20G<42 145> 799 20G<42 145>
VStem: 42 103<0 357 460 819>
LayerCount: 2
Fore
SplineSet
42 819 m 1xb4
 145 819 l 1
 145 460 l 1
 888 460 l 1
 888 357 l 1
 145 357 l 1
 145 0 l 1
 42 0 l 1
 42 819 l 1xb4
EndSplineSet
EndChar

StartChar: g
Encoding: 103 103 104
Width: 919
Flags: HW
HStem: 0 22G<787 888> 0 22G<787 888> 716 103<42 787>
VStem: 787 100<0 716>
LayerCount: 2
Fore
SplineSet
888 819 m 1xb0
 888 0 l 1
 787 0 l 1
 787 716 l 1
 42 716 l 1
 42 819 l 1
 888 819 l 1xb0
EndSplineSet
EndChar

StartChar: h
Encoding: 104 104 105
Width: 919
Flags: HW
HStem: 0 22G<-24 141 774 940> 0 22G<-24 141 774 940> 799 20G<774 940> 799 20G<774 940>
LayerCount: 2
Fore
SplineSet
121 0 m 5xa0
 -24 0 l 5
 795 819 l 5
 940 819 l 5
 530 410 l 5
 940 0 l 5
 795 0 l 5
 458 337 l 5
 121 0 l 5xa0
EndSplineSet
EndChar

StartChar: i
Encoding: 105 105 106
Width: 919
Flags: HW
HStem: 0 103<32 409 512 575> 716 103<32 409 512 581>
VStem: 409 103<107 712> 783 102<296 525>
LayerCount: 2
Fore
SplineSet
458 0 m 0
 221 0 32 0 32 0 c 1
 32 103 l 1
 409 103 l 1
 409 716 l 1
 32 716 l 1
 32 819 l 1
 32 819 221 819 458 819 c 0
 695 819 886 648 886 411 c 0
 886 174 695 0 458 0 c 0
512 712 m 1
 512 107 l 1
 666 130 783 249 783 411 c 0
 783 573 666 690 512 712 c 1
EndSplineSet
EndChar

StartChar: j
Encoding: 106 106 107
Width: 919
Flags: HW
HStem: 0 103<42 787> 799 20G<787 888> 799 20G<787 888>
VStem: 787 100<103 819>
LayerCount: 2
Fore
SplineSet
888 0 m 1xd0
 42 0 l 1
 42 103 l 1
 787 103 l 1
 787 819 l 1
 888 819 l 1
 888 0 l 1xd0
EndSplineSet
EndChar

StartChar: k
Encoding: 107 107 108
Width: 919
Flags: HW
HStem: 0 103<343 886> 716 103<343 886>
VStem: 32 103<294 527>
LayerCount: 2
Fore
SplineSet
460 0 m 3
 223 0 32 174 32 411 c 3
 32 648 223 819 460 819 c 3
 697 819 886 819 886 819 c 1
 886 716 l 1
 886 716 640 716 460 716 c 3
 280 716 135 591 135 411 c 3
 135 231 280 103 460 103 c 3
 640 103 886 103 886 103 c 9
 886 0 l 17
 886 0 697 0 460 0 c 3
EndSplineSet
EndChar

StartChar: l
Encoding: 108 108 109
Width: 919
Flags: HW
HStem: 0 103<143 873> 799 20G<42 143> 799 20G<42 143>
VStem: 42 101<103 819>
LayerCount: 2
Fore
SplineSet
42 0 m 1xd0
 42 819 l 1
 143 819 l 1
 143 103 l 1
 873 103 l 1
 873 0 l 1
 42 0 l 1xd0
EndSplineSet
EndChar

StartChar: m
Encoding: 109 109 110
Width: 919
Flags: HW
HStem: -17 103<341 578> 799 20G<32 135 785 888> 799 20G<32 135 785 888>
VStem: 32 103<293 819> 785 102<299 819>
LayerCount: 2
Fore
SplineSet
888 411 m 0xd8
 888 174 697 -17 460 -17 c 0
 223 -17 32 174 32 411 c 0
 32 648 32 819 32 819 c 1
 135 819 l 1
 135 819 135 591 135 411 c 0
 135 231 280 86 460 86 c 0
 640 86 785 231 785 411 c 0
 785 591 785 819 785 819 c 1
 888 819 l 1
 888 819 888 648 888 411 c 0xd8
EndSplineSet
EndChar

StartChar: n
Encoding: 110 110 111
Width: 919
Flags: HW
HStem: 0 22G<32 135 785 888> 0 22G<32 135 785 888> 736 102<345 574>
VStem: 32 103<0 528> 785 102<0 523>
LayerCount: 2
Fore
SplineSet
32 411 m 4xb8
 32 648 223 839 460 839 c 4
 697 839 888 648 888 411 c 4
 888 174 888 0 888 0 c 5
 785 0 l 5
 785 0 785 231 785 411 c 4
 785 591 640 736 460 736 c 4
 280 736 135 591 135 411 c 4
 135 231 135 0 135 0 c 5
 32 0 l 5
 32 0 32 174 32 411 c 4xb8
EndSplineSet
EndChar

StartChar: p
Encoding: 112 112 112
Width: 919
Flags: HW
HStem: 0 22G<781 888> 0 22G<781 888> 357 102<42 781> 799 20G<781 888> 799 20G<781 888>
VStem: 781 106<0 357 460 819>
LayerCount: 2
Fore
SplineSet
888 819 m 1xb4
 888 0 l 1
 781 0 l 1
 781 357 l 1
 42 357 l 1
 42 460 l 1
 781 460 l 1
 781 819 l 1
 888 819 l 1xb4
EndSplineSet
EndChar

StartChar: q
Encoding: 113 113 113
Width: 919
Flags: HW
HStem: 0 103<343 886> 716 103<343 886>
VStem: 32 103<294 527>
LayerCount: 2
Fore
SplineSet
460 0 m 3
 223 0 32 174 32 411 c 3
 32 648 223 819 460 819 c 3
 697 819 886 819 886 819 c 1
 886 716 l 1
 886 716 640 716 460 716 c 3
 280 716 135 591 135 411 c 3
 135 231 280 103 460 103 c 3
 640 103 886 103 886 103 c 9
 886 0 l 17
 886 0 697 0 460 0 c 3
EndSplineSet
EndChar

StartChar: r
Encoding: 114 114 114
Width: 919
Flags: HW
HStem: 0 22G<42 143> 0 22G<42 143> 716 103<143 873>
VStem: 42 101<0 716>
LayerCount: 2
Fore
SplineSet
42 819 m 1xb0
 873 819 l 1
 873 716 l 1
 143 716 l 1
 143 0 l 1
 42 0 l 1
 42 819 l 1xb0
EndSplineSet
EndChar

StartChar: s
Encoding: 115 115 115
Width: 919
Flags: HW
HStem: 0 103<32 575> 716 103<32 585>
VStem: 783 102<298 523>
LayerCount: 2
Fore
SplineSet
458 0 m 0
 221 0 32 0 32 0 c 1
 32 103 l 1
 32 103 278 103 458 103 c 0
 638 103 783 231 783 411 c 0
 783 591 638 716 458 716 c 0
 278 716 32 716 32 716 c 1
 32 819 l 1
 32 819 221 819 458 819 c 0
 695 819 886 648 886 411 c 0
 886 174 695 0 458 0 c 0
EndSplineSet
EndChar

StartChar: t
Encoding: 116 116 116
Width: 919
Flags: HW
HStem: 0 22G<409 512> 0 22G<409 512> 716 103<42 409 512 888>
VStem: 409 103<0 716>
LayerCount: 2
Fore
SplineSet
42 819 m 1xb0
 888 819 l 1
 888 716 l 1
 512 716 l 1
 512 0 l 1
 409 0 l 1
 409 716 l 1
 42 716 l 1
 42 819 l 1xb0
EndSplineSet
EndChar

StartChar: u
Encoding: 117 117 117
Width: 919
Flags: HW
HStem: -17 107<332 409 512 587> 799 20G<32 135 409 512 785 888> 799 20G<32 135 409 512 785 888>
VStem: 32 103<295 819> 409 103<90 819> 785 102<295 819>
LayerCount: 2
Fore
SplineSet
888 411 m 0xdc
 888 174 697 -17 460 -17 c 0
 223 -17 32 174 32 411 c 0
 32 648 32 819 32 819 c 1
 135 819 l 1
 135 819 135 591 135 411 c 0
 135 248 253 114 409 90 c 1
 409 819 l 1
 512 819 l 1
 512 90 l 1
 667 115 785 249 785 411 c 0
 785 591 785 819 785 819 c 1
 888 819 l 1
 888 819 888 648 888 411 c 0xdc
EndSplineSet
EndChar

StartChar: v
Encoding: 118 118 118
Width: 919
Flags: HW
HStem: 0 22G<398 522> 0 22G<398 522> 799 20G<1 115 807 920> 799 20G<1 115 807 920>
LayerCount: 2
Fore
SplineSet
460 104 m 1xa0
 817 819 l 1
 920 819 l 1
 512 0 l 1
 409 0 l 1
 1 819 l 1
 104 819 l 1
 460 104 l 1xa0
EndSplineSet
EndChar

StartChar: w
Encoding: 119 119 119
Width: 919
Flags: HW
HStem: -17 107<334 409 512 587> 360 102<139 409 512 781> 732 106<334 409 512 586>
VStem: 32 107<286 360 463 537> 409 103<90 360 463 732> 782 106<286 360 463 537>
LayerCount: 2
Fore
SplineSet
32 411 m 0
 32 648 223 839 460 839 c 0
 697 839 888 648 888 411 c 0
 888 174 697 -17 460 -17 c 0
 223 -17 32 174 32 411 c 0
409 90 m 1
 409 360 l 1
 139 360 l 1
 160 221 270 112 409 90 c 1
409 732 m 1
 270 710 161 602 139 463 c 1
 409 463 l 1
 409 732 l 1
512 90 m 1
 651 112 761 221 782 360 c 1
 512 360 l 1
 512 90 l 1
512 732 m 1
 512 463 l 1
 781 463 l 1
 759 601 650 710 512 732 c 1
EndSplineSet
EndChar

StartChar: x
Encoding: 120 120 120
Width: 919
Flags: HW
HStem: 0 22G<774 940> 0 22G<774 940> 799 20G<-24 141 774 940> 799 20G<-24 141 774 940>
LayerCount: 2
Fore
SplineSet
795 0 m 1xa0
 -24 819 l 1
 121 819 l 1
 458 482 l 1
 795 819 l 1
 940 819 l 1
 530 410 l 1
 940 0 l 1
 795 0 l 1xa0
EndSplineSet
EndChar

StartChar: y
Encoding: 121 121 121
Width: 919
Flags: HW
HStem: -17 103<345 575> 357 102<139 781> 736 102<343 576>
VStem: 32 108<283 357 460 537> 781 107<283 357 460 537>
LayerCount: 2
Fore
SplineSet
32 411 m 0
 32 648 223 839 460 839 c 0
 697 839 888 648 888 411 c 0
 888 174 697 -17 460 -17 c 0
 223 -17 32 174 32 411 c 0
139 357 m 1
 164 202 298 86 460 86 c 0
 622 86 756 202 781 357 c 1
 139 357 l 1
782 460 m 1
 758 617 624 736 460 736 c 0
 296 736 162 617 139 460 c 1
 782 460 l 1
EndSplineSet
EndChar

StartChar: z
Encoding: 122 122 122
Width: 919
Flags: HW
HStem: 809 20G<42 89> 809 20G<42 89>
LayerCount: 2
Fore
SplineSet
769 409 m 1x80
 42 721 l 1
 42 829 l 1
 888 460 l 1
 888 357 l 1
 42 -12 l 1
 42 96 l 1
 769 409 l 1x80
EndSplineSet
EndChar

StartChar: braceleft
Encoding: 123 123 123
Width: 919
Flags: HW
HStem: 0 103<695 795> 357 102<409 513 615 718> 716 103<695 795>
VStem: 513 102<190 357 460 628>
LayerCount: 2
Fore
SplineSet
513 357 m 1
 409 357 l 1
 409 460 l 1
 513 460 l 1
 513 669 575 819 795 819 c 1
 795 716 l 1
 631 716 615 614 615 460 c 1
 718 460 l 1
 718 357 l 1
 615 357 l 1
 615 203 633 103 795 103 c 1
 795 0 l 1
 577 0 513 148 513 357 c 1
EndSplineSet
EndChar

StartChar: bar
Encoding: 124 124 124
Width: 919
Flags: HW
HStem: 0 22G<409 512> 0 22G<409 512> 799 20G<409 512> 799 20G<409 512>
VStem: 409 103<0 819>
LayerCount: 2
Fore
SplineSet
409 819 m 1xa8
 512 819 l 1
 512 0 l 1
 409 0 l 1
 409 819 l 1xa8
EndSplineSet
EndChar

StartChar: braceright
Encoding: 125 125 125
Width: 919
Flags: HW
HStem: 0 103<229 329> 357 102<306 408 511 615> 716 103<229 329>
VStem: 408 103<190 357 460 628>
LayerCount: 2
Fore
SplineSet
511 357 m 1
 511 148 447 0 229 0 c 1
 229 103 l 1
 391 103 408 203 408 357 c 1
 306 357 l 1
 306 460 l 1
 408 460 l 1
 408 614 392 716 229 716 c 1
 229 819 l 1
 449 819 511 669 511 460 c 1
 615 460 l 1
 615 357 l 1
 511 357 l 1
EndSplineSet
EndChar

StartChar: asciitilde
Encoding: 126 126 126
Width: 919
Flags: HW
HStem: 254 103<575 760> 460 103<159 341>
LayerCount: 2
Fore
SplineSet
654 254 m 3
 526 254 390 460 262 460 c 3
 134 460 42 357 42 357 c 1
 42 460 l 1
 42 460 134 563 262 563 c 3
 390 563 526 357 654 357 c 3
 782 357 888 460 888 460 c 1
 888 357 l 1
 888 357 782 254 654 254 c 3
EndSplineSet
EndChar

